<?xml version="1.0" encoding="UTF-8"?>
<svg id="a" xmlns="http://www.w3.org/2000/svg" viewBox="0 0 500 500">
  <defs>
    <style>
      .cls-1 {
        fill: #fff;
      }
    </style>
  </defs>
  <path class="cls-1" d="M169.43,335.49c12.55-13.2,28.97-27.16,49.18-41.76,2.24-1.59,4.48-3.23,6.81-4.86,2.28-1.59,4.67-3.22,7.05-4.84,16.67-11.35,35.49-23.02,56.4-35.01,2.26-1.26,4.53-2.56,6.84-3.87,2.21-1.22,4.42-2.48,6.64-3.69,1.23-.72,2.46-1.39,3.69-2.06,29.44-16.26,55.98-29.66,79.04-39.9,3.72-25.44,5.42-47.61,5.06-66.02-.35-15.24-2.13-26.18-4.56-34-2.43-7.82-5.4-12.52-8.13-15.4-3.48-3.65-7.64-5.59-12.57-5.94t-.09,0c-5.36-.38-11.8,1.2-19.09,4.76-13.45,6.57-29.82,19.73-48.76,39.14-4.38,4.51-9.18,9.65-14.3,15.25-2.21,2.49-4.46,5.02-6.72,7.65-1.8,2.05-3.59,4.09-5.35,6.24-1.8,2.05-3.55,4.15-5.3,6.24-11.71,14.01-24.2,29.81-37.33,47.31-1.04,1.34-2.03,2.69-3.08,4.08-.57.76-1.15,1.53-1.67,2.24-1.67,2.29-3.34,4.54-4.91,6.74-38.56,52.66-64.09,96.78-76,131.19-8.36,24.26-9.97,43.8-4.8,58.24-.11-.53-.16-1.05-.22-1.57-2.36-21.52,8.45-45.09,32.18-70.16Z"/>
  <path class="cls-1" d="M117.44,121.64c-19.08-14.91-36.41-26.71-51.83-35.14-9.15-5.04-16.91-8.44-23.45-10.68-6.54-2.19-11.85-3.22-16.09-3.51-3.82-.27-6.79.04-9.12.58-4.86,1.2-8.59,3.75-11.36,7.86-3.02,4.42-4.83,10.76-5.39,18.81-1.04,14.76,2.15,35.4,9.42,61.23,1.68,6.02,3.66,12.52,6.05,19.8,7.84,24.33,18.89,52.91,32.7,85,17.87,41.46,35.26,75.77,52.1,102.65-5.84-38.23-4.91-90.82,2.84-156.51,4.02-34.54,8.76-64.87,14.14-90.09Z"/>
  <path class="cls-1" d="M211.36,202.65c.41-.53.83-1.11,1.24-1.64,1.44-1.91,2.89-3.82,4.29-5.74,14.24-18.89,27.74-35.78,40.29-50.49-1.06-2.98-2.16-5.95-3.26-8.93-10.62-28.03-21.49-51.26-32.23-69.01-7.8-12.95-14.79-21.4-20.72-26.92-5.93-5.52-10.9-8.07-14.61-9.17-1.47-.43-2.9-.72-4.3-.82-3.26-.23-6.4.44-9.5,1.91-4.8,2.33-9.52,6.92-14.06,13.62-8.26,12.29-15.84,31.7-22.45,57.73-1.03,4-2.08,8.28-3.11,12.93-.53,2.3-1.03,4.7-1.59,7.24,0,.14-.07.28-.08.42-.55,2.54-1.06,5.12-1.62,7.75-4.63,23.36-8.85,50.82-12.48,81.83-8.16,69.54-8.64,123.8-1.43,161.19.96,5.03,2.07,9.79,3.36,14.18,0-12.78,2.8-27.28,8.38-43.41,12.62-36.47,39.76-83.05,80.82-138.49.99-1.38,2.02-2.81,3.06-4.18Z"/>
  <path class="cls-1" d="M498.5,203.56c-1.64-4.7-4.58-8.14-8.9-10.5-4.69-2.58-11.2-3.78-19.22-3.55-14.82.41-35.03,5.55-60.05,15.35-5,1.94-10.35,4.14-16.34,6.67-.92.4-1.83.81-2.8,1.21-1.59.68-3.19,1.41-4.78,2.15-2.51,1.09-5.12,2.26-7.73,3.48-20.51,9.47-43.62,21.23-68.89,35.23-3.6,1.99-7.16,3.94-10.62,5.95-2.92,1.62-5.75,3.25-8.58,4.87-3.41,1.96-6.78,3.92-10.06,5.89-18.21,10.75-34.58,21.21-49.1,31.33-2.12,1.49-4.18,2.94-6.15,4.34-2.02,1.45-3.95,2.91-5.87,4.32-16.89,12.53-30.83,24.52-41.6,35.88-20.52,21.68-30,41.28-28.1,58.31.12.99.23,1.98.44,3.03,1.17,5.98,3.81,11.74,7.92,17.17l1.63,1.42.04.71c2.2,2.64,4.79,5.16,7.7,7.61.61.56,1.28,1.12,1.95,1.59.88.76,1.77,1.44,2.71,2.11.04.05.09.05.13.1,1.87,1.35,3.84,2.7,5.95,3.97,1.17.74,2.38,1.48,3.6,2.12,1.26.74,2.56,1.49,3.88,2.14.49.32,1.03.59,1.53.81,2.94,1.52,6.06,3,9.33,4.4.36.21.77.38,1.18.5,4.45,1.9,9.19,3.73,14.22,5.44,22.58,7.72,44.19,11.34,52.2,12.46-1.55-11.29-.63-20.36,2.77-27.51,1.05-2.22,2.31-4.24,3.8-6.05.92-1.11,1.93-2.16,3.07-3.11,1.9-1.74,4.06-3.23,6.45-4.56.05,0,.04.05.04.05v-.05c2.04-1.07,4.26-1.99,6.56-2.72,10.12-3.46,22.48-4.18,34.63-4.54l7.22-.2c2.44-.02,4.87-.08,7.22-.15,15.9-.43,32.17-1.49,42.05-8.89,9.97-7.4,44.71-48.16,74.37-92.7,16.64-24.95,29.25-47.28,37.42-66.32,6.88-15.99,9.57-27.6,10.16-36.03.43-6.2-.28-10.65-1.38-13.76ZM193.82,445.19h-.09c.14-.04.29-.08.38-.12-.1.09-.19.08-.29.12Z"/>
</svg>